<?xml version="1.0" encoding="UTF-8" standalone="no"?><!-- Generator: Gravit.io --><svg xmlns="http://www.w3.org/2000/svg" xmlns:xlink="http://www.w3.org/1999/xlink" style="isolation:isolate" viewBox="0 0 164 50" width="164pt" height="50pt"><path d="M 10 0 L 40 0 C 45.519 0 50 4.481 50 10 L 50 40 C 50 45.519 45.519 50 40 50 L 10 50 C 4.481 50 0 45.519 0 40 L 0 10 C 0 4.481 4.481 0 10 0 Z" style="stroke:none;fill:#2CB1BC;stroke-miterlimit:10;"/><path d=" M 26.004 9.563 L 31.863 9.563 L 31.863 29.25 C 31.863 31.06 31.46 32.661 30.652 34.055 C 29.858 35.435 28.732 36.503 27.273 37.258 C 25.815 38.013 24.168 38.391 22.332 38.391 C 19.324 38.391 16.98 37.629 15.301 36.105 C 13.621 34.569 12.781 32.401 12.781 29.602 L 18.68 29.602 C 18.68 30.995 18.973 32.023 19.559 32.688 C 20.145 33.352 21.069 33.684 22.332 33.684 C 23.452 33.684 24.344 33.299 25.008 32.531 C 25.672 31.763 26.004 30.669 26.004 29.25 L 26.004 9.563 Z " fill="rgb(255,255,255)"/><g clip-path="url(#_clipPath_zHBWj9aTVtJCQsQVrP5iYMRbk9I3y13a)"><text transform="matrix(1,0,0,1,63,35.152)" style="font-family:'Rowdies';font-weight:700;font-size:27px;font-style:normal;fill:#2cb1bc;stroke:none;">Job4U</text></g><defs><clipPath id="_clipPath_zHBWj9aTVtJCQsQVrP5iYMRbk9I3y13a"><rect x="0" y="0" width="92" height="33.534" transform="matrix(1,0,0,1,63,8.233)"/></clipPath></defs></svg>